<svg width="337" height="46" viewBox="0 0 337 46" fill="none" xmlns="http://www.w3.org/2000/svg">
<g filter="url(#filter0_d_316_132)">
<path d="M16 33.25L14.5858 34.6642L15.9953 36.0737L17.4095 34.6689L16 33.25ZM4 21.25L2.58579 19.8358L1.17157 21.25L2.58579 22.6642L4 21.25ZM16 9.25L17.4095 7.83106L15.9953 6.42629L14.5858 7.83579L16 9.25ZM19.75 12.975L21.1409 14.4121L22.6066 12.9936L21.1595 11.5561L19.75 12.975ZM11.2 21.25L9.80909 19.8129L8.32419 21.25L9.80909 22.6871L11.2 21.25ZM19.75 29.525L21.1595 30.9439L22.6066 29.5064L21.1409 28.0879L19.75 29.525ZM17.4142 31.8358L5.41421 19.8358L2.58579 22.6642L14.5858 34.6642L17.4142 31.8358ZM5.41421 22.6642L17.4142 10.6642L14.5858 7.83579L2.58579 19.8358L5.41421 22.6642ZM14.5905 10.6689L18.3405 14.3939L21.1595 11.5561L17.4095 7.83106L14.5905 10.6689ZM18.3591 11.5379L9.80909 19.8129L12.5909 22.6871L21.1409 14.4121L18.3591 11.5379ZM9.80909 22.6871L18.3591 30.9621L21.1409 28.0879L12.5909 19.8129L9.80909 22.6871ZM18.3405 28.1061L14.5905 31.8311L17.4095 34.6689L21.1595 30.9439L18.3405 28.1061ZM39.1598 36.525L38.4013 38.3756L38.4104 38.3793L38.4196 38.383L39.1598 36.525ZM33.7848 32.875L32.3408 34.2588L32.3483 34.2666L33.7848 32.875ZM30.1848 27L28.3099 27.6964L28.3116 27.7008L30.1848 27ZM31.0848 8.925L32.8541 9.85737L32.8564 9.85301L31.0848 8.925ZM37.1098 2.5L38.1154 4.2288L38.1238 4.22387L37.1098 2.5ZM56.2598 3.35L55.0104 4.91174L55.0159 4.91616L55.0215 4.92054L56.2598 3.35ZM61.5348 12L61.8479 13.9753L63.9978 13.6345L63.4766 11.5211L61.5348 12ZM55.3848 12.975L53.4801 13.5851L54.0034 15.219L55.6979 14.9503L55.3848 12.975ZM52.0348 7.875L50.7593 9.41554L50.7692 9.42365L52.0348 7.875ZM46.1098 5.95L46.0822 7.94981L46.096 7.95H46.1098V5.95ZM40.0848 7.525L41.2061 9.1811L41.2061 9.18109L40.0848 7.525ZM36.4598 12.1L34.6127 11.333L34.6099 11.3397L34.6072 11.3464L36.4598 12.1ZM36.4598 25.875L34.6094 26.6341L34.6117 26.6397L36.4598 25.875ZM40.0598 30.4L38.9384 32.0561L38.9464 32.0615L40.0598 30.4ZM46.1098 32.075L46.0822 34.0748L46.0914 34.0749L46.1098 32.075ZM50.8848 31.1L51.7616 32.8975L51.7704 32.8932L51.7792 32.8889L50.8848 31.1ZM54.2348 28.025L55.9238 29.0961L55.9296 29.0868L54.2348 28.025ZM55.9848 22.85L57.964 23.1373L58.2961 20.85H55.9848V22.85ZM49.6348 22.85H47.6348V24.85H49.6348V22.85ZM49.6348 18.125V16.125H47.6348V18.125H49.6348ZM62.3848 18.125L64.3693 17.8769L64.1503 16.125H62.3848V18.125ZM62.4598 19.3L64.4587 19.2355L64.4587 19.2355L62.4598 19.3ZM60.4598 29.3L58.6777 28.3921L58.6755 28.3965L60.4598 29.3ZM54.7098 35.5L55.7388 37.215L55.7388 37.215L54.7098 35.5ZM45.7348 35.75C43.6402 35.75 41.7011 35.3846 39.8999 34.667L38.4196 38.383C40.7184 39.2988 43.1627 39.75 45.7348 39.75V35.75ZM39.9182 34.6744C38.1437 33.9471 36.582 32.8881 35.2212 31.4834L32.3483 34.2666C34.0875 36.0619 36.1092 37.4362 38.4013 38.3756L39.9182 34.6744ZM35.2287 31.4912C33.9041 30.109 32.8405 28.391 32.058 26.2992L28.3116 27.7008C29.2623 30.2423 30.5988 32.441 32.3408 34.2588L35.2287 31.4912ZM32.0596 26.3036C31.2908 24.2336 30.8848 21.8097 30.8848 19H26.8848C26.8848 22.1903 27.3454 25.0997 28.3099 27.6964L32.0596 26.3036ZM30.8848 19C30.8848 15.3118 31.5722 12.2902 32.8541 9.85737L29.3154 7.99263C27.664 11.1265 26.8848 14.8215 26.8848 19H30.8848ZM32.8564 9.85301C34.1613 7.36189 35.9145 5.50903 38.1154 4.22878L36.1041 0.771212C33.205 2.45763 30.9416 4.88811 29.3131 7.99699L32.8564 9.85301ZM38.1238 4.22387C40.3415 2.91933 42.8613 2.25 45.7348 2.25V-1.75C42.2083 -1.75 38.978 -0.919338 36.0957 0.776128L38.1238 4.22387ZM45.7348 2.25C49.8683 2.25 52.8859 3.21212 55.0104 4.91174L57.5092 1.78826C54.467 -0.645457 50.4679 -1.75 45.7348 -1.75V2.25ZM55.0215 4.92054C57.219 6.65323 58.7654 9.12375 59.593 12.4789L63.4766 11.5211C62.4708 7.44291 60.5005 4.14676 57.4981 1.77946L55.0215 4.92054ZM61.2216 10.0247L55.0716 10.9997L55.6979 14.9503L61.8479 13.9753L61.2216 10.0247ZM57.2894 12.3649C56.5027 9.90884 55.1844 7.866 53.3003 6.32634L50.7692 9.42365C51.9851 10.4173 52.9001 11.7745 53.4801 13.5851L57.2894 12.3649ZM53.3102 6.33449C51.3355 4.69949 48.8818 3.95 46.1098 3.95V7.95C48.1377 7.95 49.634 8.48383 50.7593 9.41551L53.3102 6.33449ZM46.1373 3.95019C43.4148 3.91264 40.9787 4.50439 38.9635 5.8689L41.2061 9.18109C42.3908 8.37894 43.9714 7.92069 46.0822 7.94981L46.1373 3.95019ZM38.9635 5.8689C37.0072 7.19348 35.5633 9.04372 34.6127 11.333L38.3068 12.867C38.9895 11.2229 39.9624 10.0232 41.2061 9.1811L38.9635 5.8689ZM34.6072 11.3464C33.6895 13.6024 33.2598 16.1684 33.2598 19H37.2598C37.2598 16.565 37.63 14.531 38.3124 12.8536L34.6072 11.3464ZM33.2598 19C33.2598 21.831 33.6893 24.3913 34.6094 26.6341L38.3101 25.1159C37.6302 23.4587 37.2598 21.4357 37.2598 19H33.2598ZM34.6117 26.6397C35.5485 28.9036 36.9872 30.7349 38.9385 32.0561L41.1811 28.7439C39.9323 27.8984 38.971 26.7131 38.3078 25.1103L34.6117 26.6397ZM38.9464 32.0615C40.9546 33.4071 43.3722 34.0374 46.0822 34.0748L46.1373 30.0752C44.014 30.0459 42.3983 29.5595 41.1731 28.7385L38.9464 32.0615ZM46.0914 34.0749C48.1583 34.0939 50.0671 33.7241 51.7616 32.8975L50.0079 29.3025C48.9691 29.8092 47.6946 30.0895 46.1281 30.0751L46.0914 34.0749ZM51.7792 32.8889C53.4905 32.0332 54.8744 30.7509 55.9238 29.0961L52.5457 26.9539C51.8618 28.0325 51.0124 28.8001 49.9903 29.3111L51.7792 32.8889ZM55.9296 29.0868C56.979 27.4119 57.6348 25.4052 57.964 23.1373L54.0055 22.5627C53.7347 24.4281 53.2239 25.8714 52.5399 26.9632L55.9296 29.0868ZM55.9848 20.85H49.6348V24.85H55.9848V20.85ZM51.6348 22.85V18.125H47.6348V22.85H51.6348ZM49.6348 20.125H62.3848V16.125H49.6348V20.125ZM60.4002 18.3731C60.4219 18.5463 60.4447 18.8642 60.4608 19.3645L64.4587 19.2355C64.4415 18.7024 64.4143 18.237 64.3693 17.8769L60.4002 18.3731ZM60.4608 19.3645C60.4691 19.6213 60.4752 19.8236 60.4792 19.9728C60.4813 20.0474 60.4827 20.1067 60.4836 20.1517C60.4841 20.1742 60.4844 20.1918 60.4846 20.2051C60.4848 20.2192 60.4848 20.225 60.4848 20.225H64.4848C64.4848 20.0843 64.4748 19.7348 64.4587 19.2355L60.4608 19.3645ZM60.4848 20.225C60.4848 23.3549 59.8651 26.0612 58.6777 28.3921L62.2418 30.2079C63.7544 27.2388 64.4848 23.8951 64.4848 20.225H60.4848ZM58.6755 28.3965C57.5102 30.698 55.8533 32.4815 53.6808 33.785L55.7388 37.215C58.5662 35.5185 60.7427 33.1686 62.2441 30.2034L58.6755 28.3965ZM53.6808 33.785C51.5473 35.0651 48.9266 35.75 45.7348 35.75V39.75C49.5096 39.75 52.8722 38.9349 55.7388 37.215L53.6808 33.785ZM66.0059 37H64.0059V39H66.0059V37ZM66.0059 10V8H64.0059V10H66.0059ZM71.3309 10H73.3309V8H71.3309V10ZM71.3309 16.575L69.7421 17.7899L73.3309 22.4828V16.575H71.3309ZM70.6809 15.725L68.8054 15.0304L68.4225 16.0642L69.0921 16.9399L70.6809 15.725ZM72.0059 13.275L70.4101 12.0693L70.4059 12.075L72.0059 13.275ZM74.0309 11.425L75.0811 13.1271L75.1159 13.1056L75.1498 13.0827L74.0309 11.425ZM76.2309 10.375L76.8274 12.284L76.8396 12.2802L76.8517 12.2762L76.2309 10.375ZM78.7309 9.9L78.8483 11.8965L78.8678 11.8954L78.8872 11.8939L78.7309 9.9ZM81.2059 10H83.2059V8.30575L81.5347 8.02721L81.2059 10ZM81.2059 15.625L80.6459 17.545L83.2059 18.2917V15.625H81.2059ZM78.4309 15.4L78.2726 13.4063L78.2701 13.4065L78.4309 15.4ZM75.6309 16.275L76.5812 18.0348L76.621 18.0133L76.6599 17.99L75.6309 16.275ZM73.5809 18L71.99 16.7879L71.9808 16.8L71.9717 16.8123L73.5809 18ZM72.4309 20.4L74.3553 20.9446L74.3579 20.9353L72.4309 20.4ZM72.0559 37V39H74.0559V37H72.0559ZM68.0059 37V10H64.0059V37H68.0059ZM66.0059 12H71.3309V8H66.0059V12ZM69.3309 10V16.575H73.3309V10H69.3309ZM72.9196 15.3601L72.2696 14.5101L69.0921 16.9399L69.7421 17.7899L72.9196 15.3601ZM72.5564 16.4196C72.8259 15.692 73.1769 15.0469 73.6059 14.475L70.4059 12.075C69.7348 12.9697 69.2025 13.958 68.8054 15.0304L72.5564 16.4196ZM73.6016 14.4807C74.022 13.9242 74.5133 13.4774 75.0811 13.1271L72.9806 9.72293C71.9817 10.3393 71.123 11.1258 70.4101 12.0693L73.6016 14.4807ZM75.1498 13.0827C75.6488 12.7459 76.205 12.4785 76.8274 12.284L75.6343 8.46604C74.6567 8.77153 73.7463 9.20412 72.9119 9.7673L75.1498 13.0827ZM76.8517 12.2762C77.5068 12.0623 78.171 11.9364 78.8483 11.8965L78.6134 7.90345C77.5907 7.96361 76.5883 8.15438 75.6101 8.47379L76.8517 12.2762ZM78.8872 11.8939C79.5835 11.8393 80.2453 11.8675 80.8771 11.9728L81.5347 8.02721C80.5664 7.86583 79.5782 7.8274 78.5745 7.90612L78.8872 11.8939ZM79.2059 10V15.625H83.2059V10H79.2059ZM81.7659 13.705C80.6805 13.3884 79.5033 13.3086 78.2726 13.4063L78.5891 17.3937C79.4584 17.3247 80.1312 17.3949 80.6459 17.545L81.7659 13.705ZM78.2701 13.4065C76.9507 13.5129 75.7168 13.8911 74.6019 14.56L76.6599 17.99C77.2116 17.6589 77.8443 17.4538 78.5916 17.3935L78.2701 13.4065ZM74.6806 14.5152C73.6166 15.0898 72.7084 15.8451 71.99 16.7879L75.1717 19.2121C75.52 18.7549 75.9785 18.3602 76.5812 18.0348L74.6806 14.5152ZM71.9717 16.8123C71.2998 17.7226 70.8143 18.7471 70.5038 19.8647L74.3579 20.9353C74.5474 20.2529 74.8286 19.6774 75.19 19.1877L71.9717 16.8123ZM70.5064 19.8554C70.2005 20.9365 70.0559 22.0802 70.0559 23.275H74.0559C74.0559 22.4031 74.1613 21.6302 74.3553 20.9446L70.5064 19.8554ZM70.0559 23.275V37H74.0559V23.275H70.0559ZM72.0559 35H66.0059V39H72.0559V35ZM89.0633 35.975L90.0571 34.2394L90.0571 34.2394L89.0633 35.975ZM84.2133 31.05L82.4591 32.0106L82.465 32.0213L84.2133 31.05ZM84.1883 16.125L85.9605 17.052L85.9634 17.0464L84.1883 16.125ZM88.9133 11.05L87.8906 9.33126L87.8906 9.33126L88.9133 11.05ZM103.038 11.225L101.919 12.8825L101.927 12.888L101.935 12.8934L103.038 11.225ZM107.413 16.75L105.555 17.4905L105.555 17.4905L107.413 16.75ZM108.488 25.175V27.175H110.349L110.483 25.319L108.488 25.175ZM102.513 25.175H100.513V27.175H102.513V25.175ZM102.513 22.975H104.513L104.513 22.9636L102.513 22.975ZM100.963 16.55L102.561 15.3468L102.561 15.3468L100.963 16.55ZM90.6633 16.825L92.2317 18.066L92.2383 18.0576L90.6633 16.825ZM90.6633 29.85L89.1015 31.0994L89.1015 31.0994L90.6633 29.85ZM99.7383 31.125L100.779 32.8329L100.786 32.8283L99.7383 31.125ZM102.238 28.25L102.817 26.3357L101.159 25.8339L100.426 27.4042L102.238 28.25ZM108.188 30.05L110.029 30.8317L110.9 28.7809L108.767 28.1357L108.188 30.05ZM103.388 35.725L102.331 34.0275L102.325 34.0312L103.388 35.725ZM86.9633 25.175H84.9633V27.175H86.9633V25.175ZM86.9633 20.625V18.625H84.9633V20.625H86.9633ZM105.538 20.625H107.538V18.625H105.538V20.625ZM105.538 25.175V27.175H107.538V25.175H105.538ZM96.2633 35.75C93.8264 35.75 91.7789 35.2252 90.0571 34.2394L88.0695 37.7106C90.481 39.0914 93.2335 39.75 96.2633 39.75V35.75ZM90.0571 34.2394C88.3098 33.2389 86.9528 31.8629 85.9616 30.0787L82.465 32.0213C83.8071 34.4371 85.6834 36.3444 88.0695 37.7106L90.0571 34.2394ZM85.9675 30.0894C85.0004 28.3234 84.4883 26.2457 84.4883 23.8H80.4883C80.4883 26.821 81.1262 29.5766 82.4591 32.0106L85.9675 30.0894ZM84.4883 23.8C84.4883 21.1068 85.0047 18.8793 85.9605 17.052L82.4161 15.198C81.1052 17.7041 80.4883 20.5932 80.4883 23.8H84.4883ZM85.9634 17.0464C86.9338 15.177 88.2553 13.7688 89.936 12.7687L87.8906 9.33126C85.5379 10.7312 83.7095 12.7063 82.4132 15.2036L85.9634 17.0464ZM89.936 12.7687C91.6048 11.7757 93.5757 11.25 95.9133 11.25V7.25C92.9508 7.25 90.2551 7.92428 87.8906 9.33126L89.936 12.7687ZM95.9133 11.25C98.3916 11.25 100.358 11.8287 101.919 12.8825L104.157 9.56747C101.818 7.98797 99.0349 7.25 95.9133 7.25V11.25ZM101.935 12.8934C103.531 13.9484 104.743 15.4512 105.555 17.4905L109.271 16.0095C108.184 13.2822 106.478 11.1016 104.141 9.55656L101.935 12.8934ZM105.555 17.4905C106.368 19.5292 106.711 22.022 106.493 25.031L110.483 25.319C110.733 21.8614 110.359 18.7374 109.271 16.0095L105.555 17.4905ZM108.488 23.175H102.513V27.175H108.488V23.175ZM104.513 25.175V22.975H100.513V25.175H104.513ZM104.513 22.9636C104.496 19.8828 103.966 17.2129 102.561 15.3468L99.3657 17.7532C99.9937 18.5871 100.497 20.2005 100.513 22.9864L104.513 22.9636ZM102.561 15.3468C101.06 13.3538 98.7738 12.525 96.1633 12.525V16.525C97.9194 16.525 98.8333 17.0462 99.3657 17.7532L102.561 15.3468ZM96.1633 12.525C93.2614 12.525 90.7659 13.4488 89.0883 15.5924L92.2383 18.0576C92.9607 17.1346 94.1318 16.525 96.1633 16.525V12.525ZM89.0948 15.584C87.5034 17.5955 86.8633 20.3379 86.8633 23.5H90.8633C90.8633 20.7954 91.4232 19.0879 92.2317 18.066L89.0948 15.584ZM86.8633 23.5C86.8633 26.4997 87.5194 29.1217 89.1015 31.0994L92.225 28.6006C91.4072 27.5783 90.8633 25.967 90.8633 23.5H86.8633ZM89.1015 31.0994C90.7572 33.169 93.139 34.1 95.9133 34.1V30.1C94.0875 30.1 92.9693 29.531 92.225 28.6006L89.1015 31.0994ZM95.9133 34.1C97.6943 34.1 99.3444 33.7071 100.779 32.8329L98.6975 29.4171C97.9989 29.8429 97.0989 30.1 95.9133 30.1V34.1ZM100.786 32.8283C102.231 31.9393 103.317 30.6689 104.051 29.0958L100.426 27.4042C99.9934 28.3311 99.4121 28.9774 98.6901 29.4217L100.786 32.8283ZM101.659 30.1643L107.609 31.9643L108.767 28.1357L102.817 26.3357L101.659 30.1643ZM106.347 29.2683C105.469 31.3374 104.135 32.9031 102.331 34.0275L104.446 37.4225C106.975 35.8469 108.841 33.6292 110.029 30.8317L106.347 29.2683ZM102.325 34.0312C100.501 35.1761 98.4966 35.75 96.2633 35.75V39.75C99.23 39.75 101.975 38.9739 104.452 37.4188L102.325 34.0312ZM88.9633 25.175V20.625H84.9633V25.175H88.9633ZM86.9633 22.625H105.538V18.625H86.9633V22.625ZM103.538 20.625V25.175H107.538V20.625H103.538ZM105.538 23.175H86.9633V27.175H105.538V23.175ZM114.678 36.65L113.707 38.3983L113.715 38.4029L113.723 38.4074L114.678 36.65ZM111.603 33.675L109.854 34.6443L109.859 34.6533L109.864 34.6622L111.603 33.675ZM111.228 26.1L113.073 26.8735L113.077 26.863L111.228 26.1ZM113.228 23.4L114.508 24.9364L114.517 24.9295L114.525 24.9225L113.228 23.4ZM116.728 21.525L116.113 19.6219L116.101 19.6258L116.089 19.6298L116.728 21.525ZM120.528 20.575L120.149 18.6113L120.145 18.6121L120.528 20.575ZM125.278 19.8L125.55 21.7814L125.558 21.7803L125.566 21.7791L125.278 19.8ZM130.653 19L131.643 20.7377L130.353 17.0226L130.653 19ZM128.503 20.225L126.503 20.2071L126.472 23.684L129.493 21.9627L128.503 20.225ZM127.253 16.1L125.812 17.4868L125.812 17.4868L127.253 16.1ZM119.428 15.625L120.323 17.4139L120.323 17.4139L119.428 15.625ZM117.053 18.55L116.455 20.4583L118.343 21.0506L118.955 19.1687L117.053 18.55ZM111.553 16.825L109.633 16.2645L109.084 18.1466L110.955 18.7333L111.553 16.825ZM115.353 11.325L114.169 9.71308L114.162 9.71814L115.353 11.325ZM129.278 10.425L128.486 12.2616L128.492 12.2642L129.278 10.425ZM133.353 14.275L131.561 15.1627L131.566 15.1723L131.571 15.1819L133.353 14.275ZM134.228 17.2L132.238 17.399L132.238 17.4023L134.228 17.2ZM134.378 37V39H136.378V37H134.378ZM129.103 37H127.103V39H129.103V37ZM129.103 31.15L130.574 29.795L127.103 26.0264V31.15H129.103ZM129.978 32.1L131.675 33.1587L132.482 31.8659L131.449 30.745L129.978 32.1ZM125.703 36.4L126.676 38.1475L126.682 38.1441L125.703 36.4ZM124.328 32.225L125.223 34.0139L125.223 34.0139L124.328 32.225ZM126.628 30.45L125.092 29.1696L125.083 29.1806L125.074 29.1916L126.628 30.45ZM127.803 28.475L125.955 27.7115L125.925 27.7837L125.901 27.858L127.803 28.475ZM128.328 25.85L126.331 25.7501L126.33 25.7662L126.329 25.7822L128.328 25.85ZM128.403 23.425L128.973 21.5079L126.403 20.7439V23.425H128.403ZM130.253 23.975L130.561 25.9511L130.823 22.0579L130.253 23.975ZM125.578 24.725L125.249 22.7522L125.249 22.7522L125.578 24.725ZM122.228 25.35L122.614 27.3125L122.63 27.3092L122.647 27.3056L122.228 25.35ZM119.753 25.975L119.134 24.0733L119.107 24.082L119.08 24.0915L119.753 25.975ZM116.853 28L115.15 26.9518L115.135 26.976L115.121 27.0006L116.853 28ZM116.978 31.3L115.298 32.3843L115.306 32.3969L115.314 32.4094L116.978 31.3ZM118.428 32.5L117.572 34.3075L117.581 34.3117L117.59 34.3159L118.428 32.5ZM119.628 35.75C117.924 35.75 116.621 35.4295 115.633 34.8926L113.723 38.4074C115.435 39.3372 117.432 39.75 119.628 39.75V35.75ZM115.649 34.9017C114.591 34.3136 113.845 33.5735 113.342 32.6878L109.864 34.6622C110.761 36.2432 112.065 37.4864 113.707 38.3983L115.649 34.9017ZM113.353 32.7057C112.842 31.7846 112.578 30.7625 112.578 29.6H108.578C108.578 31.4042 108.997 33.0987 109.854 34.6443L113.353 32.7057ZM112.578 29.6C112.578 28.5235 112.757 27.6258 113.073 26.8735L109.384 25.3265C108.833 26.6408 108.578 28.0765 108.578 29.6H112.578ZM113.077 26.863C113.382 26.1227 113.85 25.4853 114.508 24.9364L111.948 21.8636C110.806 22.8147 109.941 23.9773 109.379 25.337L113.077 26.863ZM114.525 24.9225C115.186 24.3597 116.11 23.8439 117.367 23.4202L116.089 19.6298C114.479 20.1727 113.071 20.9069 111.931 21.8775L114.525 24.9225ZM117.343 23.4281C118.332 23.1086 119.518 22.8102 120.912 22.5379L120.145 18.6121C118.638 18.9065 117.291 19.2414 116.113 19.6219L117.343 23.4281ZM120.907 22.5387C122.334 22.2632 123.881 22.0105 125.55 21.7814L125.006 17.8186C123.275 18.0561 121.656 18.3202 120.149 18.6113L120.907 22.5387ZM125.566 21.7791C127.287 21.5285 129.083 21.2612 130.953 20.9774L130.353 17.0226C128.49 17.3054 126.702 17.5715 124.99 17.8209L125.566 21.7791ZM129.663 17.2623L127.513 18.4873L129.493 21.9627L131.643 20.7377L129.663 17.2623ZM130.503 20.2429C130.522 18.1208 130.058 16.1305 128.694 14.7132L125.812 17.4868C126.148 17.8362 126.518 18.5959 126.503 20.2071L130.503 20.2429ZM128.694 14.7132C127.285 13.2487 125.178 12.775 122.953 12.775V16.775C124.762 16.775 125.521 17.1846 125.812 17.4868L128.694 14.7132ZM122.953 12.775C121.413 12.775 119.933 13.1366 118.534 13.8361L120.323 17.4139C121.19 16.9801 122.06 16.775 122.953 16.775V12.775ZM118.534 13.8361C116.849 14.6783 115.74 16.1208 115.151 17.9313L118.955 19.1687C119.266 18.2126 119.74 17.7051 120.323 17.4139L118.534 13.8361ZM117.652 16.6417L112.152 14.9167L110.955 18.7333L116.455 20.4583L117.652 16.6417ZM113.473 17.3855C114.02 15.5104 115.037 14.0487 116.544 12.9319L114.162 9.71814C111.936 11.3679 110.419 13.5729 109.633 16.2645L113.473 17.3855ZM116.537 12.9369C117.972 11.8827 120.044 11.25 122.953 11.25V7.25C119.496 7.25 116.501 8.00062 114.169 9.7131L116.537 12.9369ZM122.953 11.25C125.138 11.25 126.967 11.6064 128.486 12.2615L130.07 8.58845C127.956 7.67689 125.569 7.25 122.953 7.25V11.25ZM128.492 12.2642C129.888 12.8607 130.889 13.8071 131.561 15.1627L135.145 13.3873C134.05 11.1762 132.334 9.55598 130.064 8.58584L128.492 12.2642ZM131.571 15.1819C131.948 15.9244 132.164 16.6605 132.238 17.399L136.218 17.001C136.092 15.7395 135.725 14.5256 135.136 13.3681L131.571 15.1819ZM132.238 17.4023C132.33 18.3078 132.378 19.3142 132.378 20.425H136.378C136.378 19.2024 136.326 18.0589 136.218 16.9977L132.238 17.4023ZM132.378 20.425V37H136.378V20.425H132.378ZM134.378 35H129.103V39H134.378V35ZM131.103 37V31.15H127.103V37H131.103ZM127.632 32.505L128.507 33.455L131.449 30.745L130.574 29.795L127.632 32.505ZM128.281 31.0413C127.203 32.7702 126.005 33.9371 124.724 34.6559L126.682 38.1441C128.668 37.0295 130.32 35.3298 131.675 33.1587L128.281 31.0413ZM124.73 34.6525C123.49 35.3428 121.825 35.75 119.628 35.75V39.75C122.298 39.75 124.683 39.2572 126.676 38.1475L124.73 34.6525ZM120.828 34.95C122.425 34.95 123.915 34.6678 125.223 34.0139L123.434 30.4361C122.808 30.7488 121.964 30.95 120.828 30.95V34.95ZM125.223 34.0139C126.394 33.428 127.404 32.6702 128.183 31.7084L125.074 29.1916C124.719 29.6298 124.195 30.0554 123.434 30.4361L125.223 34.0139ZM128.165 31.7304C128.85 30.9081 129.402 30.028 129.706 29.092L125.901 27.858C125.804 28.1553 125.573 28.5919 125.092 29.1696L128.165 31.7304ZM129.652 29.2385C130.075 28.2139 130.287 27.0967 130.327 25.9178L126.329 25.7822C126.303 26.57 126.165 27.2028 125.955 27.7115L129.652 29.2385ZM130.326 25.9499C130.376 24.9343 130.403 24.0889 130.403 23.425H126.403C126.403 23.9944 126.38 24.7657 126.331 25.7501L130.326 25.9499ZM127.833 25.3421L129.683 25.8921L130.823 22.0579L128.973 21.5079L127.833 25.3421ZM129.945 21.9989C128.124 22.2829 126.558 22.5341 125.249 22.7522L125.907 26.6978C127.198 26.4826 128.749 26.2338 130.561 25.9511L129.945 21.9989ZM125.249 22.7522C123.93 22.9722 122.781 23.1861 121.809 23.3944L122.647 27.3056C123.542 27.1139 124.627 26.9112 125.907 26.6978L125.249 22.7522ZM121.843 23.3875C120.85 23.5825 119.944 23.8095 119.134 24.0733L120.372 27.8767C120.996 27.6738 121.74 27.4841 122.614 27.3125L121.843 23.3875ZM119.08 24.0915C118.258 24.3853 117.501 24.7493 116.843 25.2036L119.114 28.4964C119.422 28.284 119.848 28.0647 120.426 27.8585L119.08 24.0915ZM116.843 25.2036C116.166 25.6706 115.583 26.2481 115.15 26.9518L118.556 29.0482C118.657 28.8853 118.824 28.6961 119.114 28.4964L116.843 25.2036ZM115.121 27.0006C114.668 27.785 114.478 28.6496 114.478 29.525H118.478C118.478 29.2337 118.538 29.0817 118.585 28.9994L115.121 27.0006ZM114.478 29.525C114.478 30.5425 114.738 31.5171 115.298 32.3843L118.659 30.2157C118.551 30.0495 118.478 29.8408 118.478 29.525H114.478ZM115.314 32.4094C115.88 33.258 116.666 33.8784 117.572 34.3075L119.284 30.6925C118.923 30.5216 118.743 30.342 118.642 30.1906L115.314 32.4094ZM117.59 34.3159C118.574 34.77 119.679 34.95 120.828 34.95V30.95C120.077 30.95 119.582 30.83 119.266 30.6841L117.59 34.3159ZM155.212 37L155.579 38.966L157.212 38.6608V37H155.212ZM149.962 37.425L150.02 35.4258L150.01 35.4256L150.001 35.4254L149.962 37.425ZM145.387 36.5L144.574 38.3276L144.584 38.3318L144.593 38.3359L145.387 36.5ZM142.312 33.675L140.544 34.6096L140.55 34.6212L140.556 34.6327L142.312 33.675ZM141.337 30.1L143.336 30.0452L141.337 30.1ZM141.287 2.5V0.499997H139.287V2.5H141.287ZM147.287 2.5H149.287V0.499997H147.287V2.5ZM147.312 28.475L145.312 28.5158L145.313 28.5362L145.313 28.5566L147.312 28.475ZM147.837 30.475L149.552 29.446L149.547 29.4379L149.542 29.4299L147.837 30.475ZM150.712 32.15L150.888 30.1578L150.888 30.1578L150.712 32.15ZM155.212 31.95H157.212V29.631L154.918 29.9717L155.212 31.95ZM136.387 14.725H134.387V16.725H136.387V14.725ZM136.387 10V8H134.387V10H136.387ZM155.212 10H157.212V8H155.212V10ZM155.212 14.725V16.725H157.212V14.725H155.212ZM154.844 35.034C153.193 35.3426 151.586 35.4715 150.02 35.4258L149.903 39.4242C151.771 39.4785 153.663 39.324 155.579 38.966L154.844 35.034ZM150.001 35.4254C148.52 35.3964 147.257 35.1296 146.18 34.6641L144.593 38.3359C146.216 39.0371 148.003 39.387 149.923 39.4246L150.001 35.4254ZM146.199 34.6724C145.246 34.2488 144.555 33.6105 144.068 32.7173L140.556 34.6327C141.469 36.3062 142.828 37.5512 144.574 38.3276L146.199 34.6724ZM144.08 32.7404C143.595 31.8221 143.36 30.9295 143.336 30.0452L139.337 30.1548C139.38 31.7039 139.796 33.1946 140.544 34.6096L144.08 32.7404ZM143.336 30.0452C143.303 28.8508 143.287 27.4945 143.287 25.975H139.287C139.287 27.5222 139.304 28.9159 139.337 30.1548L143.336 30.0452ZM143.287 25.975V2.5H139.287V25.975H143.287ZM141.287 4.5H147.287V0.499997H141.287V4.5ZM145.287 2.5V25.625H149.287V2.5H145.287ZM145.287 25.625C145.287 26.7179 145.295 27.682 145.312 28.5158L149.311 28.4342C149.295 27.6347 149.287 26.6988 149.287 25.625H145.287ZM145.313 28.5566C145.356 29.6 145.585 30.6286 146.132 31.5201L149.542 29.4299C149.455 29.2881 149.334 28.9833 149.31 28.3934L145.313 28.5566ZM146.122 31.504C147.098 33.1318 148.679 33.9777 150.535 34.1422L150.888 30.1578C150.111 30.0889 149.775 29.8182 149.552 29.446L146.122 31.504ZM150.535 34.1422C152.046 34.2761 153.709 34.1952 155.506 33.9283L154.918 29.9717C153.348 30.2048 152.011 30.2573 150.888 30.1578L150.535 34.1422ZM153.212 31.95V37H157.212V31.95H153.212ZM138.387 14.725V10H134.387V14.725H138.387ZM136.387 12H155.212V8H136.387V12ZM153.212 10V14.725H157.212V10H153.212ZM155.212 12.725H136.387V16.725H155.212V12.725ZM174.002 35.4L172.952 37.1022L172.96 37.1071L174.002 35.4ZM168.077 28.8L166.278 29.6731L166.282 29.6817L168.077 28.8ZM168.077 9.2L166.282 8.31833L166.278 8.32693L168.077 9.2ZM174.002 2.625L175.044 4.33213L175.052 4.32717L174.002 2.625ZM193.627 3.375L192.424 4.9727L192.43 4.97731L193.627 3.375ZM199.452 11.75L199.984 13.6781L201.988 13.1256L201.359 11.1447L199.452 11.75ZM193.377 13.425L191.461 13.996L192.02 15.8739L193.909 15.3531L193.377 13.425ZM189.802 7.925L188.561 9.4928L188.57 9.50034L189.802 7.925ZM177.202 7.55L176.089 5.88852L176.081 5.8939L177.202 7.55ZM173.577 12.125L171.73 11.358L171.727 11.3659L173.577 12.125ZM172.352 19L170.352 18.9873V19H172.352ZM173.552 25.9L171.7 26.6536L171.704 26.6631L171.708 26.6726L173.552 25.9ZM177.202 30.45L178.316 28.7885L178.316 28.7885L177.202 30.45ZM189.802 30.075L188.561 28.5072L188.561 28.5072L189.802 30.075ZM193.377 24.575L193.909 22.6469L192.024 22.1271L191.462 24.0003L193.377 24.575ZM199.452 26.25L201.359 26.8553L201.988 24.8744L199.984 24.3219L199.452 26.25ZM193.627 34.65L194.824 36.2523L194.83 36.2477L193.627 34.65ZM183.252 35.75C179.947 35.75 177.24 35.0332 175.044 33.6929L172.96 37.1071C175.898 38.9001 179.358 39.75 183.252 39.75V35.75ZM175.052 33.6978C172.82 32.3206 171.097 30.4112 169.873 27.9183L166.282 29.6817C167.825 32.8222 170.052 35.3127 172.952 37.1022L175.052 33.6978ZM169.877 27.9269C168.665 25.4287 168.027 22.4703 168.027 19H164.027C164.027 22.963 164.757 26.538 166.278 29.6731L169.877 27.9269ZM168.027 19C168.027 15.5297 168.665 12.5713 169.877 10.0731L166.278 8.32693C164.757 11.462 164.027 15.037 164.027 19H168.027ZM169.873 10.0817C171.096 7.59049 172.817 5.6919 175.044 4.33211L172.96 0.917886C170.055 2.69144 167.825 5.17618 166.282 8.31834L169.873 10.0817ZM175.052 4.32717C177.247 2.97338 179.951 2.25 183.252 2.25V-1.75C179.354 -1.75 175.891 -0.890052 172.952 0.922819L175.052 4.32717ZM183.252 2.25C187.057 2.25 190.069 3.19915 192.424 4.97269L194.83 1.77731C191.652 -0.615815 187.748 -1.75 183.252 -1.75V2.25ZM192.43 4.97731C194.839 6.77637 196.547 9.20805 197.546 12.3553L201.359 11.1447C200.125 7.25861 197.949 4.10696 194.824 1.77269L192.43 4.97731ZM198.921 9.82194L192.846 11.4969L193.909 15.3531L199.984 13.6781L198.921 9.82194ZM195.294 12.854C194.494 10.1671 193.091 7.95843 191.035 6.34966L188.57 9.50034C189.88 10.5249 190.861 11.9829 191.461 13.996L195.294 12.854ZM191.044 6.35722C188.927 4.68008 186.272 3.925 183.252 3.925V7.925C185.6 7.925 187.311 8.50325 188.561 9.49277L191.044 6.35722ZM183.252 3.925C180.536 3.925 178.107 4.53638 176.089 5.88854L178.316 9.21146C179.531 8.39695 181.136 7.925 183.252 7.925V3.925ZM176.081 5.8939C174.125 7.21848 172.681 9.06872 171.73 11.358L175.424 12.892C176.107 11.2479 177.08 10.0482 178.324 9.20609L176.081 5.8939ZM171.727 11.3659C170.809 13.6038 170.37 16.1595 170.352 18.9873L174.352 19.0127C174.368 16.5738 174.746 14.5462 175.428 12.8841L171.727 11.3659ZM170.352 19C170.352 21.8316 170.782 24.3976 171.7 26.6536L175.405 25.1464C174.723 23.469 174.352 21.435 174.352 19H170.352ZM171.708 26.6726C172.662 28.9516 174.119 30.791 176.089 32.1115L178.316 28.7885C177.053 27.9423 176.076 26.7484 175.397 25.1274L171.708 26.6726ZM176.089 32.1115C178.107 33.4636 180.536 34.075 183.252 34.075V30.075C181.136 30.075 179.531 29.603 178.316 28.7885L176.089 32.1115ZM183.252 34.075C186.272 34.075 188.927 33.3199 191.044 31.6428L188.561 28.5072C187.311 29.4967 185.6 30.075 183.252 30.075V34.075ZM191.044 31.6428C193.09 30.0219 194.492 27.8205 195.293 25.1497L191.462 24.0003C190.863 25.9961 189.881 27.4614 188.561 28.5072L191.044 31.6428ZM192.846 26.5031L198.921 28.1781L199.984 24.3219L193.909 22.6469L192.846 26.5031ZM197.546 25.6447C196.546 28.793 194.837 31.2355 192.424 33.0523L194.83 36.2477C197.951 33.8978 200.125 30.7404 201.359 26.8553L197.546 25.6447ZM192.43 33.0477C190.075 34.8073 187.06 35.75 183.252 35.75V39.75C187.744 39.75 191.647 38.626 194.824 36.2523L192.43 33.0477ZM208.291 35.925L209.325 34.2125L209.325 34.2125L208.291 35.925ZM203.591 30.9L201.811 31.811L201.815 31.8192L201.819 31.8275L203.591 30.9ZM203.641 16.05L201.875 15.1117L201.875 15.1117L203.641 16.05ZM208.366 11.05L207.344 9.33126L207.344 9.33126L208.366 11.05ZM222.466 11.075L223.5 9.36252L223.5 9.36251L222.466 11.075ZM227.166 16.125L225.392 17.0468L225.394 17.0525L227.166 16.125ZM227.141 30.925L225.372 29.9924L225.369 29.9975L227.141 30.925ZM222.441 35.95L223.464 37.6688L223.475 37.6625L222.441 35.95ZM220.716 29.7L219.1 28.5217L219.1 28.5217L220.716 29.7ZM220.691 17.25L219.095 18.4554L219.102 18.4636L220.691 17.25ZM211.366 16L212.506 17.6434L212.512 17.6397L211.366 16ZM209.066 19.025L210.93 19.7511L210.933 19.743L209.066 19.025ZM210.091 29.775L208.495 30.9804L208.503 30.9899L208.51 30.9993L210.091 29.775ZM215.366 35.75C212.976 35.75 210.986 35.2149 209.325 34.2125L207.258 37.6375C209.63 39.0685 212.357 39.75 215.366 39.75V35.75ZM209.325 34.2125C207.629 33.1894 206.314 31.7891 205.363 29.9725L201.819 31.8275C203.102 34.2775 204.921 36.2273 207.258 37.6375L209.325 34.2125ZM205.372 29.989C204.437 28.1612 203.941 26.0151 203.941 23.5H199.941C199.941 26.5516 200.546 29.3388 201.811 31.811L205.372 29.989ZM203.941 23.5C203.941 20.9372 204.452 18.7865 205.408 16.9883L201.875 15.1117C200.564 17.5801 199.941 20.3961 199.941 23.5H203.941ZM205.408 16.9883C206.375 15.1683 207.697 13.7758 209.389 12.7687L207.344 9.33126C205.003 10.7242 203.175 12.6651 201.875 15.1117L205.408 16.9883ZM209.389 12.7687C211.058 11.7757 213.029 11.25 215.366 11.25V7.25C212.404 7.25 209.708 7.92428 207.344 9.33126L209.389 12.7687ZM215.366 11.25C217.776 11.25 219.774 11.7863 221.433 12.7875L223.5 9.36251C221.126 7.93041 218.39 7.25 215.366 7.25V11.25ZM221.433 12.7875C223.125 13.8083 224.439 15.2138 225.392 17.0468L228.941 15.2032C227.66 12.7362 225.841 10.7751 223.5 9.36252L221.433 12.7875ZM225.394 17.0525C226.34 18.8579 226.841 20.9891 226.841 23.5H230.841C230.841 20.4442 230.227 17.6587 228.938 15.1975L225.394 17.0525ZM226.841 23.5C226.841 26.0247 226.332 28.1709 225.372 29.9924L228.911 31.8576C230.217 29.3791 230.841 26.5753 230.841 23.5H226.841ZM225.369 29.9975C224.419 31.8141 223.104 33.2144 221.408 34.2375L223.475 37.6625C225.812 36.2523 227.631 34.3025 228.913 31.8525L225.369 29.9975ZM221.419 34.2313C219.756 35.2209 217.762 35.75 215.366 35.75V39.75C218.371 39.75 221.094 39.0791 223.464 37.6687L221.419 34.2313ZM215.366 34.1C218.253 34.1 220.708 33.1067 222.332 30.8783L219.1 28.5217C218.392 29.4933 217.28 30.1 215.366 30.1V34.1ZM222.332 30.8783C223.811 28.8512 224.466 26.3381 224.466 23.5H220.466C220.466 25.7286 219.956 27.3488 219.1 28.5217L222.332 30.8783ZM224.466 23.5C224.466 20.5936 223.809 18.0372 222.281 16.0364L219.102 18.4636C219.941 19.5628 220.466 21.1731 220.466 23.5H224.466ZM222.287 16.0446C220.647 13.8725 218.216 12.9 215.366 12.9V16.9C217.25 16.9 218.369 17.4942 219.095 18.4554L222.287 16.0446ZM215.366 12.9C213.448 12.9 211.686 13.3375 210.221 14.3603L212.512 17.6397C213.147 17.1959 214.052 16.9 215.366 16.9V12.9ZM210.227 14.3566C208.829 15.3262 207.828 16.6746 207.2 18.307L210.933 19.743C211.305 18.7754 211.838 18.1071 212.506 17.6434L210.227 14.3566ZM207.203 18.2989C206.594 19.8609 206.316 21.6079 206.316 23.5H210.316C210.316 21.9921 210.539 20.7557 210.93 19.7511L207.203 18.2989ZM206.316 23.5C206.316 26.4078 206.975 28.967 208.495 30.9804L211.687 28.5696C210.841 27.4496 210.316 25.8255 210.316 23.5H206.316ZM208.51 30.9993C210.16 33.1305 212.557 34.1 215.366 34.1V30.1C213.542 30.1 212.423 29.5195 211.673 28.5507L208.51 30.9993ZM237.175 35.875L238.294 34.2178L238.294 34.2178L237.175 35.875ZM232.875 30.775L231.067 31.63L231.067 31.63L232.875 30.775ZM232.875 16.2L231.072 15.3336L231.069 15.3396L232.875 16.2ZM237.25 11.125L238.345 12.7982L238.356 12.7914L237.25 11.125ZM250.35 11.125L249.18 12.7472L249.189 12.7535L249.197 12.7598L250.35 11.125ZM254.325 30.775L256.17 31.5473L256.172 31.5422L254.325 30.775ZM250.3 35.875L251.448 37.5127L251.448 37.5127L250.3 35.875ZM248.5 31.25L249.695 32.8533L249.7 32.85L248.5 31.25ZM250.675 28.125L248.787 27.4643L248.783 27.4749L248.78 27.4854L250.675 28.125ZM250.675 18.875L248.78 19.5146L248.784 19.5289L248.79 19.5431L250.675 18.875ZM248.55 15.775L247.324 17.3552L247.332 17.3618L247.341 17.3684L248.55 15.775ZM240.8 15.85L241.996 17.453L242.004 17.447L242.012 17.4409L240.8 15.85ZM238.475 19.05L240.347 19.7523L240.35 19.7446L238.475 19.05ZM238.45 28L236.567 28.6741L236.572 28.6882L236.577 28.7022L238.45 28ZM240.725 31.175L239.504 32.7593L239.504 32.7593L240.725 31.175ZM251.375 37H249.375V39H251.375V37ZM251.375 18.05H253.375V16.05H251.375V18.05ZM250.625 18.05H248.625V20.05H250.625V18.05ZM250.625 0.999999V-1H248.625V0.999999H250.625ZM256.7 0.999999H258.7V-1H256.7V0.999999ZM256.7 37V39H258.7V37H256.7ZM243.675 35.75C241.544 35.75 239.777 35.2197 238.294 34.2178L236.055 37.5322C238.272 39.0303 240.839 39.75 243.675 39.75V35.75ZM238.294 34.2178C236.761 33.1818 235.556 31.7677 234.683 29.92L231.067 31.63C232.226 34.0823 233.888 36.0682 236.055 37.5322L238.294 34.2178ZM234.683 29.92C233.808 28.0714 233.35 25.9444 233.35 23.5H229.35C229.35 26.4556 229.907 29.1786 231.067 31.63L234.683 29.92ZM233.35 23.5C233.35 21.0179 233.81 18.8859 234.68 17.0604L231.069 15.3396C229.906 17.7807 229.35 20.5155 229.35 23.5H233.35ZM234.677 17.0664C235.563 15.2243 236.785 13.8199 238.345 12.7982L236.154 9.45184C233.947 10.8968 232.253 12.8757 231.072 15.3336L234.677 17.0664ZM238.356 12.7914C239.87 11.7861 241.691 11.25 243.9 11.25V7.25C241.008 7.25 238.396 7.96393 236.144 9.45863L238.356 12.7914ZM243.9 11.25C246.133 11.25 247.851 11.7889 249.18 12.7472L251.519 9.50282C249.382 7.96106 246.8 7.25 243.9 7.25V11.25ZM249.197 12.7598C250.613 13.7574 251.712 15.1373 252.48 16.9723L256.169 15.4277C255.138 12.9627 253.586 10.9593 251.502 9.4902L249.197 12.7598ZM252.48 16.9723C253.262 18.8406 253.675 21.0051 253.675 23.5H257.675C257.675 20.5615 257.187 17.8594 256.169 15.4277L252.48 16.9723ZM253.675 23.5C253.675 25.9576 253.263 28.1167 252.478 30.0078L256.172 31.5422C257.186 29.0999 257.675 26.4091 257.675 23.5H253.675ZM252.48 30.0027C251.715 31.8297 250.604 33.2195 249.152 34.2373L251.448 37.5127C253.562 36.0305 255.134 34.0203 256.169 31.5473L252.48 30.0027ZM249.152 34.2373C247.77 35.2058 245.985 35.75 243.675 35.75V39.75C246.631 39.75 249.263 39.0442 251.448 37.5127L249.152 34.2373ZM244.6 34.35C246.511 34.35 248.271 33.9153 249.695 32.8533L247.304 29.6467C246.761 30.0514 245.922 30.35 244.6 30.35V34.35ZM249.7 32.85C251.063 31.8276 252.007 30.4309 252.57 28.7646L248.78 27.4854C248.442 28.4858 247.936 29.1724 247.3 29.65L249.7 32.85ZM252.562 28.7857C253.119 27.1962 253.375 25.4233 253.375 23.5H249.375C249.375 25.0767 249.164 26.3871 248.787 27.4643L252.562 28.7857ZM253.375 23.5C253.375 21.5633 253.12 19.7863 252.56 18.2069L248.79 19.5431C249.163 20.597 249.375 21.9034 249.375 23.5H253.375ZM252.57 18.2354C252.013 16.5849 251.093 15.1939 249.758 14.1816L247.341 17.3684C247.94 17.8227 248.437 18.4984 248.78 19.5146L252.57 18.2354ZM249.776 14.1948C248.377 13.11 246.662 12.65 244.8 12.65V16.65C246.004 16.65 246.789 16.94 247.324 17.3552L249.776 14.1948ZM244.8 12.65C242.846 12.65 241.058 13.1385 239.588 14.2591L242.012 17.4409C242.641 16.9615 243.52 16.65 244.8 16.65V12.65ZM239.604 14.247C238.214 15.2838 237.219 16.6805 236.599 18.3554L240.35 19.7446C240.73 18.7195 241.285 17.9829 241.996 17.453L239.604 14.247ZM236.602 18.3478C236.006 19.9361 235.725 21.6616 235.725 23.5H239.725C239.725 22.0717 239.943 20.8306 240.347 19.7522L236.602 18.3478ZM235.725 23.5C235.725 25.3457 235.995 27.0779 236.567 28.6741L240.333 27.3259C239.937 26.2221 239.725 24.9543 239.725 23.5H235.725ZM236.577 28.7022C237.193 30.3452 238.16 31.724 239.504 32.7593L241.945 29.5907C241.256 29.0593 240.706 28.3215 240.322 27.2978L236.577 28.7022ZM239.504 32.7593C240.942 33.8674 242.691 34.35 244.6 34.35V30.35C243.375 30.35 242.54 30.0492 241.945 29.5907L239.504 32.7593ZM253.375 37V18.05H249.375V37H253.375ZM251.375 16.05H250.625V20.05H251.375V16.05ZM252.625 18.05V0.999999H248.625V18.05H252.625ZM250.625 3H256.7V-1H250.625V3ZM254.7 0.999999V37H258.7V0.999999H254.7ZM256.7 35H251.375V39H256.7V35ZM267.284 35.975L268.278 34.2394L268.278 34.2394L267.284 35.975ZM262.434 31.05L260.68 32.0106L260.686 32.0213L262.434 31.05ZM262.409 16.125L264.181 17.052L264.184 17.0464L262.409 16.125ZM267.134 11.05L266.111 9.33126L266.111 9.33126L267.134 11.05ZM281.259 11.225L280.14 12.8825L280.148 12.888L280.156 12.8934L281.259 11.225ZM285.634 16.75L283.776 17.4905L283.776 17.4905L285.634 16.75ZM286.709 25.175V27.175H288.57L288.704 25.319L286.709 25.175ZM280.734 25.175H278.734V27.175H280.734V25.175ZM280.734 22.975H282.734L282.734 22.9636L280.734 22.975ZM279.184 16.55L280.782 15.3468L280.782 15.3468L279.184 16.55ZM268.884 16.825L270.452 18.066L270.459 18.0576L268.884 16.825ZM268.884 29.85L267.322 31.0994L267.322 31.0994L268.884 29.85ZM277.959 31.125L279 32.8329L279.007 32.8283L277.959 31.125ZM280.459 28.25L281.038 26.3357L279.379 25.8339L278.647 27.4042L280.459 28.25ZM286.409 30.05L288.25 30.8317L289.121 28.7809L286.988 28.1357L286.409 30.05ZM281.609 35.725L280.551 34.0275L280.545 34.0312L281.609 35.725ZM265.184 25.175H263.184V27.175H265.184V25.175ZM265.184 20.625V18.625H263.184V20.625H265.184ZM283.759 20.625H285.759V18.625H283.759V20.625ZM283.759 25.175V27.175H285.759V25.175H283.759ZM274.484 35.75C272.047 35.75 270 35.2252 268.278 34.2394L266.29 37.7106C268.702 39.0914 271.454 39.75 274.484 39.75V35.75ZM268.278 34.2394C266.531 33.2389 265.173 31.8629 264.182 30.0787L260.686 32.0213C262.028 34.4371 263.904 36.3444 266.29 37.7106L268.278 34.2394ZM264.188 30.0894C263.221 28.3234 262.709 26.2457 262.709 23.8H258.709C258.709 26.821 259.347 29.5766 260.68 32.0106L264.188 30.0894ZM262.709 23.8C262.709 21.1068 263.225 18.8793 264.181 17.052L260.637 15.198C259.326 17.7041 258.709 20.5932 258.709 23.8H262.709ZM264.184 17.0464C265.154 15.177 266.476 13.7688 268.157 12.7687L266.111 9.33126C263.759 10.7312 261.93 12.7063 260.634 15.2036L264.184 17.0464ZM268.157 12.7687C269.826 11.7757 271.796 11.25 274.134 11.25V7.25C271.172 7.25 268.476 7.92428 266.111 9.33126L268.157 12.7687ZM274.134 11.25C276.612 11.25 278.579 11.8287 280.14 12.8825L282.378 9.56747C280.039 7.98797 277.256 7.25 274.134 7.25V11.25ZM280.156 12.8934C281.752 13.9484 282.963 15.4512 283.776 17.4905L287.492 16.0095C286.405 13.2822 284.699 11.1016 282.362 9.55656L280.156 12.8934ZM283.776 17.4905C284.589 19.5292 284.931 22.022 284.714 25.031L288.704 25.319C288.953 21.8614 288.579 18.7374 287.492 16.0095L283.776 17.4905ZM286.709 23.175H280.734V27.175H286.709V23.175ZM282.734 25.175V22.975H278.734V25.175H282.734ZM282.734 22.9636C282.716 19.8828 282.187 17.2129 280.782 15.3468L277.586 17.7532C278.214 18.5871 278.718 20.2005 278.734 22.9864L282.734 22.9636ZM280.782 15.3468C279.281 13.3538 276.995 12.525 274.384 12.525V16.525C276.14 16.525 277.054 17.0462 277.586 17.7532L280.782 15.3468ZM274.384 12.525C271.482 12.525 268.987 13.4488 267.309 15.5924L270.459 18.0576C271.181 17.1346 272.353 16.525 274.384 16.525V12.525ZM267.316 15.584C265.724 17.5955 265.084 20.3379 265.084 23.5H269.084C269.084 20.7954 269.644 19.0879 270.452 18.066L267.316 15.584ZM265.084 23.5C265.084 26.4997 265.74 29.1217 267.322 31.0994L270.446 28.6006C269.628 27.5783 269.084 25.967 269.084 23.5H265.084ZM267.322 31.0994C268.978 33.169 271.36 34.1 274.134 34.1V30.1C272.308 30.1 271.19 29.531 270.446 28.6006L267.322 31.0994ZM274.134 34.1C275.915 34.1 277.565 33.7071 279 32.8329L276.918 29.4171C276.22 29.8429 275.32 30.1 274.134 30.1V34.1ZM279.007 32.8283C280.452 31.9393 281.537 30.6689 282.271 29.0958L278.647 27.4042C278.214 28.3311 277.633 28.9774 276.911 29.4217L279.007 32.8283ZM279.88 30.1643L285.83 31.9643L286.988 28.1357L281.038 26.3357L279.88 30.1643ZM284.568 29.2683C283.689 31.3374 282.356 32.9031 280.551 34.0275L282.667 37.4225C285.195 35.8469 287.062 33.6292 288.25 30.8317L284.568 29.2683ZM280.545 34.0312C278.722 35.1761 276.717 35.75 274.484 35.75V39.75C277.451 39.75 280.196 38.9739 282.673 37.4188L280.545 34.0312ZM267.184 25.175V20.625H263.184V25.175H267.184ZM265.184 22.625H283.759V18.625H265.184V22.625ZM281.759 20.625V25.175H285.759V20.625H281.759ZM283.759 23.175H265.184V27.175H283.759V23.175ZM299.887 0.999999V-1H298.351L297.955 0.484673L299.887 0.999999ZM305.937 0.999999L307.87 1.51532L308.54 -1H305.937V0.999999ZM296.337 37V39H297.874L298.27 37.5153L296.337 37ZM290.287 37L288.355 36.4847L287.684 39H290.287V37ZM299.887 3H305.937V-1H299.887V3ZM304.005 0.484673L294.405 36.4847L298.27 37.5153L307.87 1.51532L304.005 0.484673ZM296.337 35H290.287V39H296.337V35ZM292.22 37.5153L301.82 1.51532L297.955 0.484673L288.355 36.4847L292.22 37.5153ZM320.268 33.25L318.854 34.6642L320.266 36.077L321.681 34.6657L320.268 33.25ZM316.543 29.525L315.15 28.0899L313.693 29.5038L315.129 30.9392L316.543 29.525ZM325.068 21.25L326.461 22.6851L327.939 21.25L326.461 19.8149L325.068 21.25ZM316.543 12.975L315.129 11.5608L313.693 12.9962L315.15 14.4101L316.543 12.975ZM320.268 9.25L321.681 7.83432L320.266 6.42304L318.854 7.83579L320.268 9.25ZM332.293 21.25L333.706 22.6657L335.124 21.25L333.706 19.8343L332.293 21.25ZM321.682 31.8358L317.957 28.1108L315.129 30.9392L318.854 34.6642L321.682 31.8358ZM317.936 30.9601L326.461 22.6851L323.675 19.8149L315.15 28.0899L317.936 30.9601ZM326.461 19.8149L317.936 11.5399L315.15 14.4101L323.675 22.6851L326.461 19.8149ZM317.957 14.3892L321.682 10.6642L318.854 7.83579L315.129 11.5608L317.957 14.3892ZM318.855 10.6657L330.88 22.6657L333.706 19.8343L321.681 7.83432L318.855 10.6657ZM330.88 19.8343L318.855 31.8343L321.681 34.6657L333.706 22.6657L330.88 19.8343Z" fill="#8257E5"/>
</g>
<defs>
<filter id="filter0_d_316_132" x="0" y="0.25" width="336.293" height="45.5" filterUnits="userSpaceOnUse" color-interpolation-filters="sRGB">
<feFlood flood-opacity="0" result="BackgroundImageFix"/>
<feColorMatrix in="SourceAlpha" type="matrix" values="0 0 0 0 0 0 0 0 0 0 0 0 0 0 0 0 0 0 127 0" result="hardAlpha"/>
<feOffset dy="4"/>
<feGaussianBlur stdDeviation="2"/>
<feComposite in2="hardAlpha" operator="out"/>
<feColorMatrix type="matrix" values="0 0 0 0 0 0 0 0 0 0 0 0 0 0 0 0 0 0 0.25 0"/>
<feBlend mode="normal" in2="BackgroundImageFix" result="effect1_dropShadow_316_132"/>
<feBlend mode="normal" in="SourceGraphic" in2="effect1_dropShadow_316_132" result="shape"/>
</filter>
</defs>
</svg>
